<?xml version="1.0" encoding="UTF-8" standalone="no"?>
<svg
   xmlns:dc="http://purl.org/dc/elements/1.1/"
   xmlns:cc="http://creativecommons.org/ns#"
   xmlns:rdf="http://www.w3.org/1999/02/22-rdf-syntax-ns#"
   xmlns:svg="http://www.w3.org/2000/svg"
   xmlns="http://www.w3.org/2000/svg"
   xmlns:sodipodi="http://sodipodi.sourceforge.net/DTD/sodipodi-0.dtd"
   xmlns:inkscape="http://www.inkscape.org/namespaces/inkscape"
   width="283"
   height="64"
   viewBox="0 0 283 64"
   fill="none"
   version="1.1"
   id="svg4"
   sodipodi:docname="rjhuss.svg"
   inkscape:version="1.0.2-2 (e86c870879, 2021-01-15)">
  <metadata
     id="metadata10">
    <rdf:RDF>
      <cc:Work
         rdf:about="">
        <dc:format>image/svg+xml</dc:format>
        <dc:type
           rdf:resource="http://purl.org/dc/dcmitype/StillImage" />
      </cc:Work>
    </rdf:RDF>
  </metadata>
  <defs
     id="defs8" />
  <sodipodi:namedview
     pagecolor="#ffffff"
     bordercolor="#666666"
     borderopacity="1"
     objecttolerance="10"
     gridtolerance="10"
     guidetolerance="10"
     inkscape:pageopacity="0"
     inkscape:pageshadow="2"
     inkscape:window-width="2560"
     inkscape:window-height="1017"
     id="namedview6"
     showgrid="false"
     inkscape:zoom="3.6819788"
     inkscape:cx="193.46463"
     inkscape:cy="20.678062"
     inkscape:window-x="-8"
     inkscape:window-y="-8"
     inkscape:window-maximized="1"
     inkscape:current-layer="svg4"
     inkscape:document-rotation="0" />
  <path
     d="M 0,64 C 0,21.333333 0,42.666667 0,64 Z"
     fill="#000000"
     id="path2"
     sodipodi:nodetypes="cc" />
  <path
     id="path832"
     style="color:#000000;font-style:normal;font-variant:normal;font-weight:normal;font-stretch:normal;font-size:64px;line-height:1.25;font-family:'Cascadia Code';-inkscape-font-specification:'Cascadia Code Bold';font-variant-ligatures:normal;font-variant-position:normal;font-variant-caps:normal;font-variant-numeric:normal;font-variant-alternates:normal;font-variant-east-asian:normal;font-feature-settings:normal;font-variation-settings:normal;text-indent:0;text-align:start;text-decoration:none;text-decoration-line:none;text-decoration-style:solid;text-decoration-color:#000000;letter-spacing:normal;word-spacing:normal;text-transform:none;writing-mode:lr-tb;direction:ltr;text-orientation:mixed;dominant-baseline:auto;baseline-shift:baseline;text-anchor:start;white-space:normal;shape-padding:0;shape-margin:0;inline-size:0;clip-rule:nonzero;display:inline;overflow:visible;visibility:visible;isolation:auto;mix-blend-mode:normal;color-interpolation:sRGB;color-interpolation-filters:linearRGB;solid-color:#000000;solid-opacity:1;vector-effect:none;fill:#0000ff;fill-opacity:1;fill-rule:nonzero;stroke:none;stroke-width:1;stroke-linecap:butt;stroke-linejoin:miter;stroke-miterlimit:4;stroke-dasharray:none;stroke-dashoffset:0;stroke-opacity:1;color-rendering:auto;image-rendering:auto;shape-rendering:auto;text-rendering:auto;enable-background:accumulate;stop-color:#000000"
     d="m 187.25531,6.7911464 c -4.6875,0 -8.3125,1.0625 -10.875,3.1875 -2.5625,2.1249996 -3.84375,5.1249996 -3.84375,8.9999996 0,2.75 0.86458,5.260417 2.59375,7.53125 1.72917,2.270833 4.16667,4.177083 7.3125,5.71875 l 6.375,3.09375 c 2.4375,1.145833 3.65625,2.6875 3.65625,4.625 0,1.479167 -0.59375,2.614583 -1.78125,3.40625 -1.1875,0.791667 -2.89583,1.1875 -5.125,1.1875 -1.91667,0 -4.01042,-0.260417 -6.28125,-0.78125 -2.25,-0.520833 -4.52083,-1.260417 -6.8125,-2.21875 l -1.125,8.4375 c 1.875,0.770833 4,1.375 6.375,1.8125 2.375,0.416667 4.82292,0.625 7.34375,0.625 5.22917,0 9.26042,-1.0625 12.09375,-3.1875 2.83333,-2.145833 4.25,-5.1875 4.25,-9.125 0,-2.479167 -0.85417,-4.802083 -2.5625,-6.96875 -1.6875,-2.166667 -4.09375,-4.0625 -7.21875,-5.6875 l -6,-3.09375 c -1.33333,-0.708333 -2.36458,-1.5 -3.09375,-2.375 -0.70833,-0.875 -1.0625,-1.802083 -1.0625,-2.78125 0,-1.479167 0.51042,-2.604167 1.53125,-3.375 1.02083,-0.791667 2.44792,-1.1875 4.28125,-1.1875 1.35417,0 2.76042,0.375 4.21875,1.125 1.45833,0.729167 2.90625,1.78125 4.34375,3.15625 l 5.6875,-6.53125 c -1.89583,-1.8125 -4.07292,-3.1979156 -6.53125,-4.1562496 -2.4375,-0.958333 -5.02083,-1.4375 -7.75,-1.4375 z m 37.5,0 c -4.6875,0 -8.3125,1.0625 -10.875,3.1875 -2.5625,2.1249996 -3.84375,5.1249996 -3.84375,8.9999996 0,2.75 0.86458,5.260417 2.59375,7.53125 1.72917,2.270833 4.16667,4.177083 7.3125,5.71875 l 6.375,3.09375 c 2.4375,1.145833 3.65625,2.6875 3.65625,4.625 0,1.479167 -0.59375,2.614583 -1.78125,3.40625 -1.1875,0.791667 -2.89583,1.1875 -5.125,1.1875 -1.91667,0 -4.01042,-0.260417 -6.28125,-0.78125 -2.25,-0.520833 -4.52083,-1.260417 -6.8125,-2.21875 l -1.125,8.4375 c 1.875,0.770833 4,1.375 6.375,1.8125 2.375,0.416667 4.82292,0.625 7.34375,0.625 5.22917,0 9.26042,-1.0625 12.09375,-3.1875 2.83333,-2.145833 4.25,-5.1875 4.25,-9.125 0,-2.479167 -0.85417,-4.802083 -2.5625,-6.96875 -1.6875,-2.166667 -4.09375,-4.0625 -7.21875,-5.6875 l -6,-3.09375 c -1.33333,-0.708333 -2.36458,-1.5 -3.09375,-2.375 -0.70833,-0.875 -1.0625,-1.802083 -1.0625,-2.78125 0,-1.479167 0.51042,-2.604167 1.53125,-3.375 1.02083,-0.791667 2.44792,-1.1875 4.28125,-1.1875 1.35417,0 2.76042,0.375 4.21875,1.125 1.45833,0.729167 2.90625,1.78125 4.34375,3.15625 l 5.6875,-6.53125 c -1.89583,-1.8125 -4.07292,-3.1979156 -6.53125,-4.1562496 -2.4375,-0.958333 -5.02083,-1.4375 -7.75,-1.4375 z m -203.062501,0.625 V 51.791146 h 8.25 v -16.25 h 7.53125 c 0.0777,0 0.14941,-0.0071 0.22656,-0.0078 l 6.52344,16.257812 h 9.84375 l -8.26562,-18.101574 c 1.01056,-0.546894 1.93034,-1.201026 2.73437,-1.992188 2.60417,-2.583333 3.90625,-6.197917 3.90625,-10.84375 0,-4.291667 -1.30208,-7.604167 -3.90625,-9.9375 -2.60417,-2.3333336 -6.29167,-3.4999996 -11.0625,-3.4999996 h -7.53125 z m 48.96875,0 v 7.5937496 h 10.15625 v 21.65625 c 0,2.520833 -0.64583,4.46875 -1.9375,5.84375 -1.27083,1.375 -3.08333,2.0625 -5.4375,2.0625 -2.33333,0 -4.14583,-0.6875 -5.4375,-2.0625 -1.27083,-1.395833 -1.90625,-3.34375 -1.90625,-5.84375 h -8.59375 c 0,4.979167 1.36458,8.854167 4.09375,11.625 2.75,2.75 6.64583,4.125 11.6875,4.125 4.95833,0 8.82292,-1.375 11.59375,-4.125 2.79167,-2.75 4.1875,-6.625 4.1875,-11.625 V 7.4161464 h -3.84375 z m 26.03125,0 V 51.791146 h 8.250001 v -18.28125 h 13.3125 v 18.28125 h 8.25 V 7.4161464 h -8.25 V 25.884896 h -13.3125 V 7.4161464 Z m 37.500001,0 V 37.541146 c 0,9.916667 4.92708,14.875 14.78125,14.875 4.91667,0 8.64583,-1.239583 11.1875,-3.71875 2.5625,-2.479167 3.84375,-6.197917 3.84375,-11.15625 V 7.4161464 h -8.25 V 37.541146 c 0,4.645833 -2.21875,6.96875 -6.65625,6.96875 -2.29167,0 -3.97917,-0.583333 -5.0625,-1.75 -1.0625,-1.166667 -1.59375,-2.90625 -1.59375,-5.21875 V 7.4161464 Z M 29.942809,15.009896 h 7.53125 c 1.91667,0 3.40625,0.5625 4.46875,1.6875 1.0625,1.125 1.59375,2.71875 1.59375,4.78125 0,2.041667 -0.53125,3.635417 -1.59375,4.78125 -1.0625,1.125 -2.55208,1.6875 -4.46875,1.6875 h -7.53125 z" />
</svg>
